HIERARCHY
ROOT Hips
{
	OFFSET 0.00 0.00 0.00
	CHANNELS 6 Xposition Yposition Zposition Xrotation Yrotation Zrotation
	JOINT Spine
	{
		OFFSET 0.00000 7.06766 0.00000
		CHANNELS 3 Xrotation Yrotation Zrotation
		JOINT Head
		{
			OFFSET 0.00000 15.03989 0.00000
			CHANNELS 3 Xrotation Yrotation Zrotation
			End Site
			{
				OFFSET 0.00000 4.52755 0.00000
			}
		}
		JOINT LeftShoulder
		{
			OFFSET 0.00000 10.53037 0.00000
			CHANNELS 3 Xrotation Yrotation Zrotation
			JOINT LeftArm
			{
				OFFSET 7.02886 0.00000 0.00000
				CHANNELS 3 Xrotation Yrotation Zrotation
				JOINT LeftForeArm
				{
					OFFSET 10.79770 0.00000 0.00000
					CHANNELS 3 Yrotation Zrotation Xrotation
					JOINT LeftHand
					{
						OFFSET 7.90744 0.00000 0.00000
						CHANNELS 3 Xrotation Yrotation Zrotation
						JOINT LeftHandThumb1
						{
							OFFSET 0.00000 0.00000 0.00000
							CHANNELS 3 Xrotation Zrotation Yrotation
							End Site
							{
								OFFSET 0.00000 0.00000 3.93700
							}
						}
						End Site
						{
							OFFSET 3.93700 0.00000 0.00000
						}
					}
				}
			}
		}
		JOINT RightShoulder
		{
			OFFSET 0.00000 10.53037 0.00000
			CHANNELS 3 Xrotation Yrotation Zrotation
			JOINT RightArm
			{
				OFFSET -7.02886 0.00000 0.00000
				CHANNELS 3 Xrotation Yrotation Zrotation
				JOINT RightForeArm
				{
					OFFSET -10.79770 0.00000 0.00000
					CHANNELS 3 Yrotation Zrotation Xrotation
					JOINT RightHand
					{
						OFFSET -7.90744 0.00000 0.00000
						CHANNELS 3 Xrotation Yrotation Zrotation
						JOINT RightHandThumb1
						{
							OFFSET 0.00000 0.00000 0.00000
							CHANNELS 3 Xrotation Zrotation Yrotation
							End Site
							{
								OFFSET 0.00000 0.00000 3.93700
							}
						}
						End Site
						{
							OFFSET -3.93700 0.00000 0.00000
						}
					}
				}
			}
		}
	}
	JOINT LeftUpLeg
	{
		OFFSET 4.01300 0.00000 0.00000
		CHANNELS 3 Xrotation Yrotation Zrotation
		JOINT LeftLeg
		{
			OFFSET 0.00000 -16.89976 0.00000
			CHANNELS 3 Xrotation Yrotation Zrotation
			JOINT LeftFoot
			{
				OFFSET 0.00000 -17.38918 0.00000
				CHANNELS 3 Xrotation Yrotation Zrotation
				JOINT LeftToeBase
				{
					OFFSET 0.00000 -1.27456 4.75673
					CHANNELS 3 Xrotation Yrotation Zrotation
					End Site
					{
						OFFSET 0.00000 0.00000 2.95275
					}
				}
			}
		}
	}
	JOINT RightUpLeg
	{
		OFFSET -4.01300 0.00000 0.00000
		CHANNELS 3 Xrotation Yrotation Zrotation
		JOINT RightLeg
		{
			OFFSET 0.00000 -16.89976 0.00000
			CHANNELS 3 Xrotation Yrotation Zrotation
			JOINT RightFoot
			{
				OFFSET 0.00000 -17.38918 0.00000
				CHANNELS 3 Xrotation Yrotation Zrotation
				JOINT RightToeBase
				{
					OFFSET 0.00000 -1.27456 4.75673
					CHANNELS 3 Xrotation Yrotation Zrotation
					End Site
					{
						OFFSET 0.00000 0.00000 2.95275
					}
				}
			}
		}
	}
}
MOTION
Frames: 21
Frame Time: 0.008333
 17.8136 35.4307 -22.1572 174.2773 -0.3485 178.3268 -13.7065 0.9151 0.4898 5.2054 -2.0193 1.7696 -30.8736 3.6219 17.7244 -0.3094 1.3969 -8.8172 1.8573 0.0000 7.0691 0.9378 8.2151 -6.5349 33.1476 -0.0000 26.2537 8.1904 -16.6366 -7.9620 -38.6883 -0.1717 10.8829 6.5910 -0.0000 33.5366 0.8672 -5.8097 8.5051 32.8623 0.0000 -24.3270 4.3278 10.8784 1.6875 -7.3272 0.0000 0.0000 -19.5033 28.9267 4.0217 25.8333 -0.0000 0.0000 3.0066 -12.0660 0.1353 -3.7820 0.0000 0.0000 -17.0595 -28.6367 1.6525 23.4791 -0.0000 0.0000
 17.8136 35.4308 -22.1516 174.2823 -0.3626 178.3323 -13.6979 0.9086 0.4829 5.2347 -2.0247 1.7705 -30.8537 3.5950 17.7183 -0.3054 1.4083 -8.8392 1.8645 0.0000 7.0373 0.9391 8.2127 -6.5459 33.1476 -0.0000 26.2537 8.1878 -16.6294 -7.9615 -38.6815 -0.1959 10.9047 6.5600 -0.0000 33.5081 0.8575 -5.7731 8.4637 32.8623 0.0000 -24.3270 4.3161 10.8830 1.6834 -7.3172 0.0000 -0.0000 -19.5020 28.9064 4.0178 25.8346 -0.0000 -0.0000 3.0030 -12.0665 0.1303 -3.7866 0.0000 0.0000 -17.0728 -28.6513 1.6292 23.5763 -0.0000 0.0000
 17.8128 35.4314 -22.1457 174.2918 -0.3509 178.3261 -13.6814 0.9091 0.5106 5.2413 -1.9931 1.7502 -30.8389 3.6047 17.7012 -0.3379 1.4032 -8.8520 1.8771 0.0000 7.0734 0.9472 8.1609 -6.6436 33.1476 -0.0000 26.2537 8.2434 -16.6495 -7.9628 -38.6930 -0.1763 10.9532 6.5258 -0.0000 33.4813 0.8532 -5.7790 8.4131 32.8623 0.0000 -24.3270 4.3121 10.8931 1.6887 -7.3087 -0.0000 -0.0000 -19.4972 28.9037 4.0185 25.8346 -0.0000 0.0000 2.9912 -12.0639 0.1328 -3.7620 0.0000 0.0000 -17.0641 -28.6387 1.6436 23.4984 -0.0000 0.0000
 17.8118 35.4322 -22.1392 174.3061 -0.3561 178.3272 -13.6529 0.9101 0.5183 5.2182 -1.9863 1.7642 -30.8389 3.5812 17.6856 -0.3323 1.4176 -8.8695 1.8728 0.0000 7.0643 0.9498 8.1663 -6.6570 33.1476 -0.0000 26.2537 8.2348 -16.6436 -7.9537 -38.7355 -0.1988 10.9591 6.5244 -0.0000 33.5809 0.8649 -5.8015 8.4944 32.8623 0.0000 -24.3270 4.3113 10.8805 1.6875 -7.2992 0.0000 0.0000 -19.4934 28.9120 4.0223 25.8107 -0.0000 0.0000 2.9928 -12.0728 0.1289 -3.7572 0.0000 0.0000 -17.0528 -28.6283 1.6431 23.4342 0.0000 0.0000
 17.8108 35.4327 -22.1328 174.3156 -0.3564 178.3270 -13.6251 0.9179 0.5268 5.1954 -1.9798 1.7712 -30.8340 3.5857 17.6814 -0.3723 1.3946 -8.8932 1.8885 0.0000 7.0729 0.9497 8.1411 -6.6764 33.1476 -0.0000 26.2537 8.1723 -16.6148 -7.9668 -38.6673 -0.2282 10.9592 6.4540 -0.0000 33.6609 0.8427 -5.7410 8.3655 32.8623 0.0000 -24.3270 4.3037 10.8825 1.6876 -7.2873 -0.0000 -0.0000 -19.5035 28.9056 4.0394 25.8114 -0.0000 0.0000 2.9822 -12.0758 0.1261 -3.7402 -0.0000 -0.0000 -17.0499 -28.6296 1.6676 23.4288 -0.0000 -0.0000
 17.8099 35.4331 -22.1258 174.3268 -0.3576 178.3311 -13.5997 0.9057 0.5300 5.1875 -1.9607 1.7712 -30.8590 3.5708 17.6801 -0.3409 1.4035 -8.9061 1.8814 0.0000 7.0682 0.9515 8.1220 -6.7045 33.1476 -0.0000 26.2537 8.1426 -16.5660 -7.9916 -38.6329 -0.3055 10.9698 6.4979 -0.0000 33.6697 0.8530 -5.7701 8.4241 32.8623 0.0000 -24.3270 4.2987 10.8806 1.6827 -7.2758 -0.0000 -0.0000 -19.5012 28.9047 4.0452 25.7886 0.0000 -0.0000 2.9791 -12.0667 0.1202 -3.7400 -0.0000 -0.0000 -17.0558 -28.6395 1.6204 23.5194 -0.0000 0.0000
 17.8104 35.4338 -22.1197 174.3462 -0.3704 178.3250 -13.5619 0.8983 0.5418 5.1792 -1.9392 1.7736 -30.8499 3.5729 17.6696 -0.3753 1.3788 -8.9212 1.9011 0.0000 7.0529 0.9538 8.1124 -6.7286 33.1476 -0.0000 26.2537 8.1214 -16.5477 -7.9907 -38.6289 -0.3546 10.9625 6.5535 -0.0000 33.6314 0.8830 -5.8577 8.5875 32.8623 0.0000 -24.3270 4.2940 10.8802 1.6935 -7.2569 0.0000 0.0000 -19.5149 28.8866 4.0411 25.8519 -0.0000 0.0000 2.9905 -12.0903 0.1277 -3.7326 -0.0000 -0.0000 -17.0135 -28.6578 1.7169 23.3681 0.0000 -0.0000
 17.8095 35.4345 -22.1128 174.3608 -0.3758 178.3283 -13.5313 0.8967 0.5470 5.1682 -1.9625 1.7646 -30.8578 3.5495 17.6579 -0.3836 1.3946 -8.9290 1.8933 0.0000 7.0521 0.9567 8.0920 -6.7659 33.1476 -0.0000 26.2537 8.1438 -16.5400 -7.9741 -38.6696 -0.3739 10.9631 6.5499 -0.0000 33.6247 0.8908 -5.8969 8.6060 32.8623 0.0000 -24.3270 4.2908 10.8775 1.6895 -7.2427 -0.0000 -0.0000 -19.5036 28.8806 4.0402 25.8419 -0.0000 0.0000 2.9894 -12.1109 0.1218 -3.7287 0.0000 0.0000 -17.0457 -28.6098 1.6441 23.5282 0.0000 0.0000
 17.8092 35.4351 -22.1042 174.3768 -0.3563 178.3337 -13.4937 0.9228 0.5500 5.1555 -1.9591 1.7761 -30.8786 3.5129 17.6493 -0.3751 1.4085 -8.9341 1.8989 0.0000 7.0448 0.9577 8.0646 -6.7952 33.1476 -0.0000 26.2537 8.1444 -16.5340 -7.9640 -38.6893 -0.3907 10.9725 6.5265 -0.0000 33.6058 0.8877 -5.8761 8.6060 32.8623 0.0000 -24.3270 4.2923 10.8869 1.6836 -7.2356 0.0000 -0.0000 -19.5000 28.8844 4.0471 25.8185 0.0000 -0.0000 2.9786 -12.0905 0.1130 -3.7118 0.0000 0.0000 -17.0406 -28.6127 1.6480 23.5004 0.0000 -0.0000
 17.8096 35.4358 -22.0960 174.3895 -0.3456 178.3316 -13.4611 0.9254 0.5562 5.1499 -1.9574 1.7763 -30.8566 3.4990 17.6490 -0.4032 1.4334 -8.9366 1.8806 0.0000 7.0141 0.9581 8.0395 -6.8189 33.1476 -0.0000 26.2537 8.1532 -16.5155 -7.9477 -38.7216 -0.4078 10.9750 6.4904 -0.0000 33.6091 0.8790 -5.8243 8.5979 32.8623 0.0000 -24.3270 4.2808 10.9109 1.6869 -7.2163 0.0000 0.0000 -19.5072 28.8736 4.0501 25.8167 -0.0000 0.0000 2.9712 -12.0876 0.1138 -3.7021 -0.0000 -0.0000 -17.0359 -28.5993 1.6508 23.4925 -0.0000 -0.0000
 17.8093 35.4364 -22.0870 174.4029 -0.3360 178.3294 -13.4265 0.9381 0.5684 5.1502 -1.9620 1.7704 -30.8610 3.4748 17.6345 -0.4092 1.4392 -8.9357 1.8806 0.0000 7.0097 0.9604 8.0539 -6.8228 33.1476 -0.0000 26.2537 8.1364 -16.5003 -7.9447 -38.7487 -0.4363 10.9757 6.4761 -0.0000 33.6351 0.8790 -5.8208 8.6022 32.8623 0.0000 -24.3270 4.2701 10.9225 1.6903 -7.1961 -0.0000 -0.0000 -19.5170 28.8605 4.0598 25.8366 -0.0000 -0.0000 2.9607 -12.0883 0.1131 -3.6849 0.0000 0.0000 -17.0303 -28.5794 1.6446 23.5299 0.0000 0.0000
 17.8102 35.4366 -22.0783 174.4208 -0.3207 178.3351 -13.3877 0.9373 0.5625 5.1436 -1.9526 1.7878 -30.8804 3.4464 17.6447 -0.3927 1.4578 -8.9342 1.8862 0.0000 6.9992 0.9614 8.0417 -6.8404 33.1476 -0.0000 26.2537 8.1525 -16.4723 -7.9228 -38.7827 -0.4399 10.9774 6.4214 -0.0000 33.5603 0.8603 -5.7718 8.4921 32.8623 0.0000 -24.3270 4.2745 10.9229 1.6860 -7.1914 -0.0000 0.0000 -19.5166 28.8736 4.0622 25.8368 0.0000 -0.0000 2.9588 -12.1112 0.1111 -3.6834 -0.0000 -0.0000 -17.0317 -28.5431 1.6106 23.5402 -0.0000 -0.0000
 17.8095 35.4369 -22.0698 174.4427 -0.3089 178.3446 -13.3429 0.9575 0.5597 5.1462 -1.9526 1.7810 -30.8764 3.4148 17.6395 -0.4130 1.4665 -8.9420 1.8838 0.0000 6.9608 0.9619 8.0987 -6.7964 33.1476 -0.0000 26.2537 8.1534 -16.4758 -7.9057 -38.8271 -0.4404 10.9807 6.3915 -0.0000 33.5674 0.8559 -5.7397 8.4963 32.8623 0.0000 -24.3270 4.2767 10.9257 1.6766 -7.1753 -0.0000 -0.0000 -19.5262 28.8777 4.0746 25.8641 0.0000 -0.0000 2.9485 -12.1272 0.0955 -3.6548 -0.0000 0.0000 -17.0432 -28.5021 1.6047 23.5350 0.0000 -0.0000
 17.8099 35.4373 -22.0627 174.4567 -0.3056 178.3429 -13.3124 0.9557 0.5657 5.1477 -1.9428 1.7834 -30.8811 3.3949 17.6455 -0.4146 1.4646 -8.9495 1.9039 0.0000 6.9591 0.9573 8.0925 -6.7692 33.1476 -0.0000 26.2537 8.1404 -16.4689 -7.9146 -38.8692 -0.4700 11.0070 6.3905 -0.0000 33.5751 0.8557 -5.7523 8.4761 32.8623 0.0000 -24.3270 4.2763 10.9292 1.6788 -7.1686 -0.0000 -0.0000 -19.5248 28.8772 4.0800 25.8770 0.0000 0.0000 2.9482 -12.1372 0.0962 -3.6516 0.0000 0.0000 -17.0323 -28.4831 1.6321 23.7447 0.0000 -0.0000
 17.8110 35.4382 -22.0545 174.4693 -0.3005 178.3419 -13.2801 0.9510 0.5686 5.1428 -1.9348 1.7861 -30.8815 3.3771 17.6443 -0.4461 1.4713 -8.9390 1.9161 0.0000 6.9920 0.9560 8.0981 -6.7558 33.1476 -0.0000 26.2537 8.0990 -16.4452 -7.9200 -38.8749 -0.4910 11.0153 6.3819 -0.0000 33.5818 0.8543 -5.7486 8.4673 32.8623 0.0000 -24.3270 4.2682 10.9233 1.6843 -7.1540 -0.0000 0.0000 -19.5266 28.8788 4.0919 25.8955 0.0000 -0.0000 2.9435 -12.1196 0.0983 -3.6436 -0.0000 -0.0000 -17.0421 -28.4990 1.6092 23.5302 -0.0000 0.0000
 17.8122 35.4389 -22.0466 174.4747 -0.2798 178.3435 -13.2606 0.9600 0.5719 5.1479 -1.9165 1.7840 -30.8908 3.3618 17.6588 -0.4537 1.4733 -8.9416 1.9108 0.0000 6.9616 0.9476 8.1411 -6.6621 33.1476 -0.0000 26.2537 8.0822 -16.4193 -7.9236 -38.9082 -0.5210 11.0182 6.3669 -0.0000 33.5923 0.8489 -5.7193 8.4576 32.8623 0.0000 -24.3270 4.2615 10.9360 1.6853 -7.1488 0.0000 0.0000 -19.5218 28.8777 4.0949 25.8782 -0.0000 0.0000 2.9237 -12.1038 0.0939 -3.6264 -0.0000 0.0000 -17.0369 -28.4931 1.6371 23.5641 -0.0000 0.0000
 17.8133 35.4395 -22.0393 174.4865 -0.2850 178.3468 -13.2325 0.9544 0.5648 5.1469 -1.9247 1.8030 -30.9404 3.3281 17.6698 -0.4284 1.4620 -8.9401 1.9179 0.0000 6.9919 0.9535 8.1364 -6.7072 33.1476 -0.0000 26.2537 8.0820 -16.4167 -7.9182 -38.9524 -0.5382 11.0300 6.3739 -0.0000 33.6200 0.8552 -5.7477 8.4772 32.8623 0.0000 -24.3270 4.2528 10.9306 1.6854 -7.1317 0.0000 0.0000 -19.5173 28.8697 4.0875 25.8837 -0.0000 -0.0000 2.9227 -12.1137 0.0920 -3.6242 -0.0000 -0.0000 -17.0318 -28.4853 1.6170 23.5329 -0.0000 0.0000
 17.8146 35.4405 -22.0306 174.4907 -0.2791 178.3496 -13.2080 0.9548 0.5619 5.1415 -1.9133 1.8065 -30.9614 3.3061 17.6677 -0.4284 1.4558 -8.9165 1.9253 0.0000 6.9698 0.9474 8.1164 -6.6808 33.1476 -0.0000 26.2537 8.0851 -16.4172 -7.9046 -38.9799 -0.5254 11.0361 6.3281 -0.0000 33.6436 0.8439 -5.6954 8.4425 32.8623 0.0000 -24.3270 4.2377 10.9372 1.6850 -7.1238 0.0000 0.0000 -19.4995 28.8779 4.0680 25.8591 0.0000 -0.0000 2.9090 -12.0895 0.0906 -3.6184 -0.0000 -0.0000 -17.0268 -28.4931 1.6131 23.5124 -0.0000 0.0000
 17.8159 35.4411 -22.0218 174.4924 -0.2755 178.3491 -13.1834 0.9645 0.5607 5.1306 -1.9190 1.8161 -30.9609 3.2752 17.6653 -0.4538 1.4673 -8.9021 1.8990 0.0000 6.9898 0.9493 8.1576 -6.6608 33.1476 -0.0000 26.2537 8.1030 -16.4330 -7.9000 -39.0282 -0.5498 11.0624 6.3845 -0.0000 33.6308 0.8629 -5.8098 8.4632 32.8623 0.0000 -24.3270 4.2163 10.9474 1.6896 -7.1081 -0.0000 -0.0000 -19.5014 28.8667 4.0771 25.8504 0.0000 -0.0000 2.8901 -12.0798 0.0902 -3.6059 -0.0000 -0.0000 -17.0419 -28.4863 1.5932 23.5911 -0.0000 0.0000
 17.8162 35.4419 -22.0124 174.4952 -0.2697 178.3500 -13.1591 0.9560 0.5665 5.1196 -1.9060 1.8052 -30.9791 3.2608 17.6627 -0.4400 1.4653 -8.8808 1.8949 0.0000 7.0013 0.9503 8.1782 -6.6507 33.1476 -0.0000 26.2537 8.0923 -16.4240 -7.9077 -39.0500 -0.5483 11.0770 6.3818 -0.0000 33.6327 0.8710 -5.8695 8.4562 32.8623 0.0000 -24.3270 4.2000 10.9249 1.6916 -7.0961 0.0000 0.0000 -19.5142 28.8768 4.0993 25.9239 -0.0000 0.0000 2.8725 -12.0533 0.0860 -3.5982 0.0000 0.0000 -17.0427 -28.5003 1.5689 23.6076 -0.0000 0.0000
 17.8172 35.4430 -22.0031 174.4994 -0.2663 178.3535 -13.1343 0.9518 0.5633 5.1197 -1.8958 1.8044 -31.0063 3.2317 17.6678 -0.4294 1.4718 -8.8664 1.8856 0.0000 6.9978 0.9445 8.1817 -6.6079 33.1476 -0.0000 26.2537 8.0632 -16.4069 -7.9123 -39.0214 -0.5559 11.0752 6.3780 -0.0000 33.6034 0.8694 -5.8702 8.4396 32.8623 0.0000 -24.3270 4.1815 10.9287 1.6905 -7.0800 -0.0000 -0.0000 -19.5007 28.8759 4.0971 25.9145 0.0000 0.0000 2.8568 -12.0379 0.0830 -3.5911 0.0000 0.0000 -17.0336 -28.5043 1.5758 23.5678 -0.0000 0.0000
